<svg width="405" height="107" viewBox="0 0 405 107" fill="none" xmlns="http://www.w3.org/2000/svg">
<path d="M396.691 40.5694L326.695 5.57126C323.933 4.19638 320.814 3.70691 317.763 4.16959C314.712 4.63227 311.878 6.02459 309.648 8.1567C307.417 10.2888 305.899 13.057 305.299 16.0837C304.699 19.1105 305.047 22.2486 306.296 25.0702L318.296 51.9187C318.568 52.5679 318.708 53.2647 318.708 53.9686C318.708 54.6725 318.568 55.3694 318.296 56.0185L306.296 82.8671C305.28 85.1505 304.85 87.6517 305.046 90.1435C305.242 92.6352 306.058 95.0385 307.419 97.1348C308.78 99.2311 310.644 100.954 312.84 102.147C315.036 103.34 317.496 103.965 319.996 103.966C322.337 103.943 324.643 103.396 326.745 102.366L396.741 67.3679C399.224 66.1189 401.311 64.2046 402.769 61.8386C404.228 59.4726 405 56.7479 405 53.9686C405 51.1893 404.228 48.4647 402.769 46.0987C401.311 43.7327 399.224 41.8184 396.741 40.5694H396.691ZM392.242 58.4184L322.245 93.4165C321.326 93.8578 320.294 94.0076 319.288 93.8457C318.281 93.6838 317.348 93.218 316.613 92.5108C315.879 91.8036 315.378 90.8887 315.178 89.8888C314.979 88.889 315.089 87.852 315.496 86.9168L327.445 60.0683C327.6 59.7098 327.733 59.3425 327.845 58.9684L362.293 58.9684C363.619 58.9684 364.891 58.4416 365.829 57.504C366.766 56.5663 367.293 55.2946 367.293 53.9686C367.293 52.6426 366.766 51.3709 365.829 50.4333C364.891 49.4957 363.619 48.9689 362.293 48.9689L327.845 48.9689C327.733 48.5948 327.6 48.2275 327.445 47.869L315.496 21.0204C315.089 20.0853 314.979 19.0483 315.178 18.0484C315.378 17.0486 315.879 16.1337 316.613 15.4265C317.348 14.7192 318.281 14.2534 319.288 14.0916C320.294 13.9297 321.326 14.0794 322.245 14.5208L392.242 49.5189C393.061 49.9384 393.748 50.5759 394.228 51.361C394.708 52.1461 394.962 53.0484 394.962 53.9686C394.962 54.8888 394.708 55.7911 394.228 56.5763C393.748 57.3614 393.061 57.9988 392.242 58.4184Z" fill="#F0AB81"/>
<path d="M15.9 94H6.5V48C6.5 40.1333 8.6 34 12.8 29.6C17.0667 25.2 22.7 23 29.7 23C37.1667 23 42.9333 25.1333 47 29.4C51.1333 33.6667 53.2 39.1 53.2 45.7C53.2 49.8333 52.4333 53.4333 50.9 56.5C49.4333 59.5667 47.4333 61.9333 44.9 63.6C42.3667 65.2667 39.6667 66.5 36.8 67.3C33.9333 68.1 30.9333 68.5 27.8 68.5H20.3V59.7H28.9C33.3667 59.7 36.8667 58.3667 39.4 55.7C42 52.9667 43.3 49.5667 43.3 45.5C43.3 41.5 42.1 38.2333 39.7 35.7C37.3667 33.1 34 31.8 29.6 31.8C25.3333 31.8 21.9667 33.2667 19.5 36.2C17.1 39.0667 15.9 42.8667 15.9 47.6V94ZM102.538 94H85.2383C77.8383 94 72.5383 92.9 69.3383 90.7C66.4716 88.7667 64.6383 86.4667 63.8383 83.8C63.1049 81.0667 62.7383 77.5 62.7383 73.1V46H71.5383V73C71.5383 74.2 71.5716 75.2333 71.6383 76.1C71.7049 76.9 71.9383 77.9667 72.3383 79.3C72.7383 80.5667 73.3049 81.6333 74.0383 82.5C74.7716 83.3 75.8383 84.0333 77.2383 84.7C78.6383 85.3 80.3383 85.6 82.3383 85.6H93.7383V46H102.538V94ZM148.382 46V54.4H130.682C128.749 54.4 127.082 54.7667 125.682 55.5C124.282 56.2333 123.582 57.2667 123.582 58.6C123.582 59.4 123.749 60.1333 124.082 60.8C124.415 61.4 124.782 61.9 125.182 62.3C125.649 62.7 126.315 63.1333 127.182 63.6C128.115 64 128.815 64.3 129.282 64.5C129.815 64.6333 131.949 65.3 135.682 66.5C139.415 67.7 142.182 68.7 143.982 69.5C145.782 70.3 147.149 71.4 148.082 72.8C149.082 74.1333 149.715 75.4667 149.982 76.8C150.249 78.0667 150.382 79.3333 150.382 80.6C150.382 89.5333 144.249 94 131.982 94H114.682V85.6H131.982C138.249 85.6 141.382 83.9333 141.382 80.6C141.382 79 140.449 77.6667 138.582 76.6C136.782 75.5333 134.549 74.6333 131.882 73.9C129.282 73.1667 126.649 72.3333 123.982 71.4C121.382 70.4 119.149 68.8333 117.282 66.7C115.482 64.5 114.582 61.8 114.582 58.6C114.582 54.5333 116.149 51.4333 119.282 49.3C122.415 47.1 126.215 46 130.682 46H148.382ZM169.195 24V46H177.695C185.095 46 190.395 47.1 193.595 49.3C196.461 51.2333 198.261 53.5667 198.995 56.3C199.795 58.9667 200.195 62.5 200.195 66.9V94H191.395V67C191.395 65.8 191.361 64.8 191.295 64C191.228 63.1333 190.995 62.0667 190.595 60.8C190.195 59.4667 189.628 58.4 188.895 57.6C188.161 56.7333 187.095 56 185.695 55.4C184.295 54.7333 182.595 54.4 180.595 54.4H169.195V94H160.395V24H169.195ZM235.652 45C246.986 45.4667 252.652 50.1667 252.652 59.1C252.652 70.2333 245.352 75.8 230.752 75.8H226.652V68.1H231.452C235.919 68.1 239.019 67.4333 240.752 66.1C242.486 64.7 243.352 62.4 243.352 59.2C243.352 57.1333 242.586 55.6 241.052 54.6C239.519 53.5333 237.552 53 235.152 53C230.419 53 226.686 54.6667 223.952 58C221.286 61.3333 219.952 65.3333 219.952 70C219.952 74.9333 221.386 78.9333 224.252 82C227.186 85.0667 230.986 86.6 235.652 86.6C239.852 86.6 243.286 85.5667 245.952 83.5L251.952 89.4C247.352 93.1333 241.919 95 235.652 95C228.052 95 221.986 92.7667 217.452 88.3C212.919 83.8333 210.652 78.0667 210.652 71C210.652 63.1333 212.886 56.7667 217.352 51.9C221.819 47.0333 227.919 44.7333 235.652 45ZM261.141 94V66.7C261.141 59.0333 262.574 53.7333 265.441 50.8C266.841 49.3333 268.541 48.2333 270.541 47.5C272.541 46.7667 274.274 46.3333 275.741 46.2C277.274 46.0667 279.341 46 281.941 46H290.741V54.4H280.141C278.807 54.4 277.774 54.4333 277.041 54.5C276.307 54.5667 275.441 54.8 274.441 55.2C273.441 55.6 272.574 56.2333 271.841 57.1C270.574 58.7 269.941 61.9 269.941 66.7V94H261.141Z" fill="#F0AB81"/>
</svg>
