<svg width="100" height="100" viewBox="0 0 100 100" fill="none" xmlns="http://www.w3.org/2000/svg">
<path d="M91.6914 36.5694L21.6952 1.57126C18.9328 0.196379 15.8136 -0.293087 12.7628 0.169594C9.71209 0.632274 6.87828 2.02459 4.64776 4.1567C2.41724 6.28881 0.89857 9.05696 0.298803 12.0837C-0.300965 15.1105 0.0473591 18.2486 1.29628 21.0702L13.2956 47.9187C13.5679 48.5679 13.7081 49.2647 13.7081 49.9686C13.7081 50.6725 13.5679 51.3694 13.2956 52.0185L1.29628 78.8671C0.27984 81.1505 -0.149859 83.6517 0.0462371 86.1435C0.242333 88.6352 1.05801 91.0385 2.41913 93.1348C3.78026 95.2311 5.64368 96.9541 7.84004 98.1471C10.0364 99.3401 12.4961 99.9653 14.9955 99.9659C17.3366 99.9425 19.6427 99.3959 21.7452 98.366L91.7414 63.3679C94.2242 62.1189 96.3112 60.2046 97.7695 57.8386C99.2278 55.4726 100 52.7479 100 49.9686C100 47.1893 99.2278 44.4647 97.7695 42.0987C96.3112 39.7327 94.2242 37.8184 91.7414 36.5694H91.6914ZM87.2416 54.4184L17.2454 89.4165C16.3263 89.8578 15.2942 90.0076 14.2875 89.8457C13.2808 89.6838 12.3477 89.218 11.6133 88.5108C10.8788 87.8036 10.3782 86.8887 10.1785 85.8888C9.97871 84.889 10.0894 83.852 10.4958 82.9168L22.4451 56.0683C22.5998 55.7098 22.7334 55.3425 22.8451 54.9684L57.2932 54.9684C58.6193 54.9684 59.8909 54.4416 60.8286 53.504C61.7662 52.5663 62.293 51.2946 62.293 49.9686C62.293 48.6426 61.7662 47.3709 60.8286 46.4333C59.8909 45.4957 58.6193 44.9689 57.2932 44.9689L22.8451 44.9689C22.7334 44.5948 22.5998 44.2275 22.4451 43.869L10.4958 17.0204C10.0894 16.0853 9.97871 15.0483 10.1785 14.0484C10.3782 13.0486 10.8788 12.1337 11.6133 11.4265C12.3477 10.7192 13.2808 10.2534 14.2875 10.0916C15.2942 9.92968 16.3263 10.0794 17.2454 10.5208L87.2416 45.5189C88.0606 45.9384 88.7479 46.5759 89.2278 47.361C89.7077 48.1461 89.9617 49.0484 89.9617 49.9686C89.9617 50.8888 89.7077 51.7911 89.2278 52.5763C88.7479 53.3614 88.0606 53.9988 87.2416 54.4184Z" fill="#F0AB81"/>
</svg>
